<svg width="48" height="48" viewBox="0 0 48 48" fill="none" xmlns="http://www.w3.org/2000/svg">
<mask id="mask0_103_92" style="mask-type:alpha" maskUnits="userSpaceOnUse" x="0" y="0" width="48" height="48">
<rect width="48" height="48" fill="#D9D9D9"/>
</mask>
<g mask="url(#mask0_103_92)">
<path d="M19.65 43.9C17.0167 43.9 14.75 42.95 12.85 41.05C10.95 39.15 10 36.8833 10 34.25C10 31.6167 10.95 29.35 12.85 27.45C14.75 25.55 17.0167 24.6 19.65 24.6V27.6C17.85 27.6 16.2917 28.2583 14.975 29.575C13.6583 30.8917 13 32.45 13 34.25C13 36.05 13.6583 37.6083 14.975 38.925C16.2917 40.2417 17.85 40.9 19.65 40.9C21.45 40.9 22.9917 40.275 24.275 39.025C25.5583 37.775 26.2 36 26.2 33.7H29.2C29.2 36.8 28.2667 39.275 26.4 41.125C24.5333 42.975 22.2833 43.9 19.65 43.9ZM36.35 42.4V32.2H25.5C23.8667 32.2 22.6417 31.5667 21.825 30.3C21.0083 29.0333 20.9333 27.6833 21.6 26.25L25.9 16.8H21.2L19.85 20.45L16.85 19.45L18.25 15.7C18.4167 15.1 18.725 14.6333 19.175 14.3C19.625 13.9667 20.2167 13.8 20.95 13.8H30.55C31.8833 13.8 32.925 14.3333 33.675 15.4C34.425 16.4667 34.5333 17.5667 34 18.7L29.5 28.25H35.6C36.6333 28.25 37.5167 28.6167 38.25 29.35C38.9833 30.0833 39.35 30.9667 39.35 32V42.4H36.35ZM35.6 12.2C34.6 12.2 33.7417 11.8417 33.025 11.125C32.3083 10.4083 31.95 9.54999 31.95 8.54999C31.95 7.54999 32.3083 6.69166 33.025 5.97499C33.7417 5.25833 34.6 4.89999 35.6 4.89999C36.6 4.89999 37.4583 5.25833 38.175 5.97499C38.8917 6.69166 39.25 7.54999 39.25 8.54999C39.25 9.54999 38.8917 10.4083 38.175 11.125C37.4583 11.8417 36.6 12.2 35.6 12.2Z" fill="#121212"/>
</g>
</svg>
