<svg width="1001" height="935" viewBox="0 0 1001 935" fill="none" xmlns="http://www.w3.org/2000/svg">
<path d="M811.824 61.818H800.217V80.0166C798.613 79.4281 796.805 79.2718 794.894 79.8051C791.707 80.6981 789.234 83.4138 788.703 86.6853C787.824 92.1013 791.982 96.7787 797.234 96.7787C801.719 96.7787 805.408 93.3693 805.837 89.0015H805.847V88.9964C805.867 88.7113 805.888 88.4222 805.888 88.1289C805.888 87.8357 805.867 87.5465 805.847 87.2615V73.5798C805.847 71.3505 807.645 69.5421 809.883 69.5421H819.466V69.4655C819.466 65.2418 816.044 61.818 811.824 61.818Z" fill="#28637C"/>
<path d="M845.55 2.83293L835.17 13.2196L837.939 15.9914L842.077 20.1303L851.446 29.5004C849.494 30.4066 847.737 31.8871 846.501 34.0674C844.447 37.722 844.662 42.3636 847.124 45.7638C851.18 51.3914 859.088 51.8573 863.778 47.1595C867.793 43.1503 868.038 36.8025 864.523 32.5042V32.5031V32.499C864.288 32.2181 864.043 31.9453 863.778 31.6838C863.522 31.4212 863.246 31.176 862.97 30.9461L850.73 18.7071C848.728 16.7118 848.728 13.477 850.73 11.4816L859.313 2.90237L859.241 2.83293C855.461 -0.944309 849.331 -0.944309 845.55 2.83293Z" fill="#28637C"/>
<path d="M545.476 41.6302L548.153 66.804C565.992 65.0794 577.241 84.7993 577.241 84.7993L591.085 84.6889L589.756 41.6302H545.476Z" fill="white"/>
<path d="M649.322 10.9975C649.322 12.2756 648.821 13.5537 647.83 14.5131C645.889 16.3879 642.793 16.3348 640.924 14.3935L638.339 11.7279C637.358 10.7093 636.04 10.1882 634.62 10.2607C633.21 10.3333 631.953 10.9872 631.074 12.1009L630.962 12.2398C630.318 13.0612 629.951 14.1207 629.951 15.1976V49.9345C629.951 63.4006 618.998 74.3563 605.532 74.3563H605.328C602.63 74.3563 600.444 72.1688 600.444 69.4695C600.444 66.7691 602.63 64.5817 605.328 64.5817H605.532C613.603 64.5817 620.173 58.0111 620.173 49.9345V15.1976C620.173 11.9425 621.287 8.7394 623.289 6.17799L623.412 6.03601C625.997 2.74204 629.91 0.710922 634.119 0.496368C638.339 0.281807 642.436 1.90021 645.378 4.93568L647.953 7.6013C648.862 8.55046 649.322 9.77448 649.322 10.9975Z" fill="white"/>
<path d="M613.011 84.7993H577.588C577.588 74.0816 567.627 65.3633 555.387 65.3633C543.136 65.3633 533.175 74.0816 533.175 84.7993H497.752C497.752 54.5517 523.601 29.943 555.387 29.943C587.162 29.943 613.011 54.5517 613.011 84.7993Z" fill="white"/>
<path d="M547.918 258.003C547.918 282.197 528.311 301.81 504.117 301.81C479.924 301.81 460.307 282.197 460.307 258.003C460.307 233.809 479.924 214.197 504.117 214.197C528.311 214.197 547.918 233.809 547.918 258.003Z" fill="white"/>
<path d="M504.117 237.563C492.838 237.563 483.673 246.733 483.673 258.003C483.673 269.275 492.838 278.444 504.117 278.444C515.387 278.444 524.552 269.275 524.552 258.003C524.552 246.733 515.387 237.563 504.117 237.563ZM504.117 286.414C488.445 286.414 475.704 273.669 475.704 258.003C475.704 242.339 488.445 229.594 504.117 229.594C519.78 229.594 532.521 242.339 532.521 258.003C532.521 273.669 519.78 286.414 504.117 286.414Z" fill="#E0E4E2"/>
<path d="M431.29 833.491L395.408 819.473L400.282 780.585L437.339 785.226L431.29 833.491Z" fill="#F6A78B"/>
<path d="M632.137 856.265L595.141 867.003L575.31 833.195L607.524 814.306L632.137 856.265Z" fill="#F6A78B"/>
<path d="M1000.02 917.996C1000.02 927.212 992.553 934.681 983.347 934.681H16.7039C7.49016 934.681 0.0214844 927.212 0.0214844 917.996C0.0214844 908.791 7.49016 901.322 16.7039 901.322H983.347C992.553 901.322 1000.02 908.791 1000.02 917.996Z" fill="#3D9EAB"/>
<path d="M527.913 332.092V417.39C527.913 455.08 497.252 485.743 459.561 485.743H395.071V526.765H459.561C519.872 526.765 568.934 477.7 568.934 417.39C568.934 398.698 573.318 324.635 573.318 324.635L527.913 332.092Z" fill="#F6A78B"/>
<path d="M389.207 485.768H377.324C354.499 485.768 335.996 504.269 335.996 527.09H430.524C430.524 504.269 412.031 485.768 389.207 485.768Z" fill="#F6A78B"/>
<path d="M490.202 915.881H490.11C487.392 915.881 485.165 913.695 485.104 910.977L478.534 593.034L487.954 592.842L491.275 754.742C491.469 764.441 505.63 765.237 506.907 755.622L525.573 615.953L534.902 617.199L495.167 911.539C494.83 914.022 492.715 915.881 490.202 915.881Z" fill="#ECF1F1"/>
<path d="M675.621 911.784L622.696 617.4L631.963 615.752L656.443 753.438C658.231 763.49 673.077 762.027 672.872 751.82L669.613 593.034L679.033 592.842L685.592 910.793C685.654 913.582 683.406 915.881 680.617 915.881H680.525C678.113 915.881 676.05 914.154 675.621 911.784Z" fill="#ECF1F1"/>
<path d="M594.743 357.022V439.706C594.743 517.915 531.346 581.316 453.134 581.316H451.704C477.645 628.839 528.24 660.976 586.293 660.54C669.899 659.912 737.045 592.23 737.045 508.626C737.045 427.955 674.159 361.983 594.743 357.022Z" fill="white"/>
<path d="M397.104 496.339L396.931 496.402C391.986 498.132 386.581 495.53 384.854 490.59L349.432 389.402L367.495 383.076L402.918 484.265C404.655 489.205 402.049 494.61 397.104 496.339Z" fill="#3A1E15"/>
<path d="M443.398 515.42L443.04 515.857C438.095 521.879 434.846 529.107 433.63 536.8L392.599 793.944L440.149 801.483L478.534 560.357L443.398 515.42Z" fill="#172F31"/>
<path d="M865.852 575.041H828.008L752.586 898.798C750.552 907.534 757.183 915.881 766.144 915.881H766.43C772.907 915.881 778.516 911.416 779.988 905.112L832.81 678.392C836.294 663.448 857.566 663.448 861.05 678.392L913.872 905.112C915.343 911.416 920.962 915.881 927.43 915.881H927.716C936.686 915.881 943.307 907.534 941.274 898.798L865.852 575.041Z" fill="#ECF1F1"/>
<path d="M861.622 556.85H832.248L828.008 575.041H865.851L861.622 556.85Z" fill="#D9DDDB"/>
<path d="M912.022 556.851H759.717V526.895H912.022C920.206 526.895 926.847 533.534 926.847 541.723V542.023C926.847 550.213 920.206 556.851 912.022 556.851Z" fill="#ADADAB"/>
<path d="M40.8681 915.881H41.1572C47.6277 915.881 53.245 911.416 54.7132 905.112L107.536 678.392C111.017 663.448 132.293 663.448 135.775 678.392L188.598 905.112C190.066 911.416 195.684 915.881 202.154 915.881H202.443C211.407 915.881 218.033 907.534 215.999 898.798L140.578 575.041H102.733L27.3122 898.798C25.278 907.534 31.9047 915.881 40.8681 915.881Z" fill="#ECF1F1"/>
<path d="M106.967 556.85L102.733 575.041H140.578L136.344 556.85H106.967Z" fill="#BEBDBB"/>
<path d="M463.188 440.81V440.807C464.128 438.877 464.455 436.659 464.005 434.477L412.542 182.494C411.735 178.558 408.609 175.59 404.767 174.899V174.898C404.236 174.803 403.694 174.754 403.153 174.749C396.358 174.262 383.516 174.761 383.516 174.761L394.591 192.432L443.081 431.793V431.792L435.612 454.564C435.612 454.564 456.261 453.52 462.922 441.288C463.004 441.152 463.086 441.018 463.147 440.879L463.188 440.81Z" fill="#E0E4E2"/>
<path d="M435.612 454.564H119.594C111.728 454.564 104.951 449.022 103.389 441.312L53.2175 193.688C51.2344 183.897 58.7184 174.745 68.7075 174.745H383.076C387.694 174.745 391.659 177.992 392.578 182.509L445.298 442.714C446.534 448.839 441.855 454.564 435.612 454.564Z" fill="white"/>
<path d="M263.007 527.09H206.595C198.939 527.09 193.088 520.259 194.265 512.694L218.07 365.659H289.053L280.972 527.09H263.007Z" fill="white"/>
<path d="M331 503.279H303.733C293.118 503.279 285.011 493.8 286.656 483.314L303.452 382.295C304.823 373.557 298.068 365.659 289.223 365.659H289.053L266.712 503.279L265.561 510.674C264.218 519.301 270.89 527.09 279.621 527.09H279.789H351.679V523.954C351.679 512.535 342.423 503.279 331 503.279Z" fill="#E0E4E2"/>
<path d="M252.032 282.496C234.329 282.496 219.978 296.846 219.978 314.55C219.978 332.253 234.329 346.603 252.032 346.603C269.735 346.603 284.087 332.253 284.087 314.55C266.384 314.55 252.032 300.199 252.032 282.496Z" fill="#E0E4E2"/>
<path d="M648.433 321.733H587.192C568.791 321.733 553.874 336.65 553.874 355.05V386.473L538.477 409.086C525.43 428.268 534.523 454.614 556.643 461.646L557.093 461.789V604.807L681.751 575.973L694.798 471.679C701.562 417.658 684.887 363.325 649.005 322.384L648.433 321.733Z" fill="#007BBE"/>
<path d="M651.509 328.488H649.935L650.804 349.777C651.202 359.441 657.894 367.625 667.233 370.166L667.365 370.205C672.28 371.591 676.98 373.661 681.353 376.3C698.813 386.835 711.105 406.429 711.105 427.789C711.105 460.649 684.377 487.382 651.509 487.382H592.342V527.09H650.242C704.913 527.09 750.277 483.436 750.808 428.769C751.339 373.567 706.589 328.488 651.509 328.488Z" fill="#F6A78B"/>
<path d="M443.398 515.42L464.2 585.784L681.996 572.587L443.398 515.42Z" fill="#172F31"/>
<path d="M591.32 503.081H388.134C374.903 503.081 364.175 513.808 364.175 527.04V527.282H567.361V527.04C567.361 513.808 578.089 503.081 591.32 503.081Z" fill="#E0E4E2"/>
<path d="M578.15 511.442H570.528C573.144 506.888 574.646 501.614 574.646 495.987V480.411H578.15C586.702 480.411 593.659 487.372 593.659 495.926C593.659 504.481 586.702 511.442 578.15 511.442ZM578.15 471.464H574.646V468.227H512.434V495.987C512.434 513.165 526.36 527.09 543.545 527.09C550.819 527.09 557.512 524.581 562.814 520.389H578.15C591.637 520.389 602.61 509.415 602.61 495.926C602.61 482.438 591.637 471.464 578.15 471.464Z" fill="white"/>
<path d="M596.745 485.691H584.842C561.976 485.691 543.443 504.226 543.443 527.09H638.144C638.144 504.226 619.611 485.691 596.745 485.691Z" fill="#F6A78B"/>
<path d="M199.947 873.869H46.0757V849.899H199.947V873.869Z" fill="#ECF1F1"/>
<path d="M922.229 873.869H768.36V849.899H922.229V873.869Z" fill="#ECF1F1"/>
<path d="M764.029 556.851H38.1617C29.9728 556.851 23.3337 550.213 23.3337 542.023V541.723C23.3337 533.534 29.9728 526.895 38.1617 526.895H764.029C772.212 526.895 778.854 533.534 778.854 541.723V542.023C778.854 550.213 772.212 556.851 764.029 556.851Z" fill="white"/>
<path d="M451.674 616.474V617.037C451.674 624.827 453.748 632.475 457.681 639.198L577.558 846.763L622.696 825.603L507.346 628.932H626.221C657.026 628.932 681.996 603.957 681.996 573.15V572.587H495.566C471.331 572.587 451.674 592.235 451.674 616.474Z" fill="#141A16"/>
<path d="M682.568 377.056L657.148 354.956L657.107 355.249C654.9 370.542 666.773 384.236 682.221 384.236H685.286C683.988 380.458 682.568 377.056 682.568 377.056Z" fill="#F6A78B"/>
<path d="M438.003 817.536C410.448 819.33 424.343 818.424 414.208 819.085C396.307 820.25 380.604 802.862 379.919 792.399C379.888 791.908 379.899 791.419 379.929 790.934L352.068 792.745C324.369 794.547 303.377 818.459 305.179 846.16L305.211 846.661L445.124 837.568C444.44 827.024 445.635 823.591 438.003 817.536Z" fill="#F0365E"/>
<path d="M360.578 829.782C360.742 832.244 358.872 834.359 356.42 834.523C353.958 834.686 351.832 832.817 351.669 830.364C351.516 827.902 353.375 825.777 355.838 825.614C358.3 825.46 360.415 827.32 360.578 829.782Z" fill="#CE1C41"/>
<path d="M325.084 832.091C325.248 834.543 323.378 836.668 320.926 836.832C318.464 836.995 316.339 835.126 316.175 832.663C316.022 830.211 317.881 828.086 320.344 827.923C322.806 827.769 324.921 829.629 325.084 832.091Z" fill="#CE1C41"/>
<path d="M335.761 799.864C335.996 803.57 333.186 806.771 329.478 807.012C325.779 807.254 322.571 804.444 322.336 800.737L321.651 790.201C321.406 786.495 324.216 783.294 327.925 783.052C331.633 782.811 334.831 785.621 335.077 789.329L335.761 799.864Z" fill="#F0365E"/>
<path d="M352.507 798.774C352.742 802.482 349.932 805.682 346.224 805.923C342.525 806.164 339.317 803.355 339.082 799.648L338.397 789.112C338.152 785.405 340.962 782.204 344.671 781.964C348.379 781.723 351.577 784.533 351.823 788.24L352.507 798.774Z" fill="#F0365E"/>
<path d="M631.36 849.389C605.419 858.839 618.497 854.078 608.954 857.552C592.096 863.692 572.142 851.412 568.556 841.552C568.393 841.092 568.26 840.622 568.158 840.142L541.92 849.705C515.836 859.197 502.401 888.04 511.903 914.124L512.076 914.594L643.815 866.615C640.208 856.694 640.382 853.067 631.36 849.389Z" fill="#F0365E"/>
<path d="M560.485 882.86C561.323 885.179 560.127 887.733 557.818 888.581C555.499 889.429 552.934 888.234 552.097 885.915C551.249 883.595 552.444 881.041 554.763 880.193C557.072 879.355 559.637 880.54 560.485 882.86Z" fill="#CE1C41"/>
<path d="M527.055 895.038C527.903 897.347 526.707 899.912 524.398 900.75C522.079 901.598 519.515 900.402 518.677 898.083C517.829 895.774 519.024 893.209 521.343 892.372C523.653 891.524 526.217 892.719 527.055 895.038Z" fill="#CE1C41"/>
<path d="M528.26 861.108C529.538 864.602 527.739 868.464 524.245 869.731C520.751 870.998 516.889 869.199 515.622 865.715L512.005 855.795C510.738 852.3 512.536 848.438 516.031 847.172C519.515 845.894 523.377 847.703 524.654 851.187L528.26 861.108Z" fill="#F0365E"/>
<path d="M544.035 855.366C545.302 858.86 543.504 862.712 540.01 863.989C536.526 865.256 532.664 863.457 531.387 859.973L527.78 850.053C526.503 846.558 528.301 842.696 531.795 841.43C535.289 840.152 539.141 841.951 540.418 845.445L544.035 855.366Z" fill="#F0365E"/>
<path d="M619.1 565.946H449.497L421.83 671.531H460.91L473.957 598.302C475.704 588.522 484.726 582.127 494.146 583.164C495.484 583.313 496.843 583.613 498.181 584.076L587.989 621.062C600.607 626.257 614.124 628.921 627.774 628.901H627.979V628.887C657.966 627.956 681.996 603.368 681.996 573.15V572.587L619.1 565.946Z" fill="#172F31"/>
<path d="M848.135 494.829C849.167 499.013 853.397 501.568 857.576 500.536C861.765 499.505 864.319 495.277 863.287 491.093L838.429 390.292C837.397 386.109 833.167 383.553 828.978 384.585C824.8 385.617 822.245 389.845 823.277 394.029L848.135 494.829Z" fill="#F0365E"/>
<path d="M843.108 441.881C846.388 441.072 848.401 437.748 847.594 434.468L837.581 393.879C837.366 393.014 836.498 392.487 835.629 392.701C834.771 392.913 834.24 393.787 834.454 394.651L844.467 435.24C844.845 436.793 843.895 438.369 842.342 438.752C840.789 439.135 839.216 438.183 838.827 436.63L828.815 396.041C828.61 395.176 827.732 394.648 826.873 394.862C826.005 395.074 825.474 395.948 825.688 396.812L835.701 437.401C836.508 440.68 839.829 442.689 843.108 441.881Z" fill="#CB1E25"/>
<path d="M836.519 520.495C837.55 524.679 841.78 527.234 845.969 526.202C850.148 525.171 852.702 520.943 851.67 516.759L826.812 415.959C825.78 411.775 821.551 409.219 817.372 410.251C813.183 411.282 810.629 415.511 811.661 419.695L836.519 520.495Z" fill="#141A16"/>
<path d="M831.502 467.548C834.782 466.738 836.784 463.414 835.977 460.135L825.975 419.545C825.76 418.68 824.881 418.153 824.023 418.366C823.155 418.579 822.623 419.453 822.838 420.317L832.851 460.906C833.239 462.459 832.278 464.035 830.725 464.418C829.172 464.8 827.599 463.849 827.221 462.296L817.208 421.707C816.994 420.842 816.125 420.314 815.257 420.528C814.388 420.74 813.867 421.614 814.082 422.478L824.084 463.067C824.892 466.346 828.222 468.356 831.502 467.548Z" fill="#28637C"/>
<path d="M847.154 471.802C847.154 476.11 850.648 479.604 854.96 479.604C859.272 479.604 862.766 476.11 862.766 471.802V367.981C862.766 363.672 859.272 360.179 854.96 360.179C850.648 360.179 847.154 363.672 847.154 367.981V471.802Z" fill="#7FD077"/>
<path d="M854.96 419.191C858.342 419.191 861.09 416.444 861.09 413.067V371.261C861.09 370.371 860.365 369.65 859.476 369.65C858.587 369.65 857.862 370.371 857.862 371.261V413.067C857.862 414.666 856.564 415.968 854.96 415.968C853.366 415.968 852.058 414.666 852.058 413.067V371.261C852.058 370.371 851.343 369.65 850.444 369.65C849.555 369.65 848.84 370.371 848.84 371.261V413.067C848.84 416.444 851.588 419.191 854.96 419.191Z" fill="#347431"/>
<path d="M859.21 491C859.21 495.309 862.694 498.802 867.006 498.802C871.317 498.802 874.812 495.309 874.812 491V387.179C874.812 382.87 871.317 379.377 867.006 379.377C862.694 379.377 859.21 382.87 859.21 387.179V491Z" fill="#28637C"/>
<path d="M867.006 438.389C870.388 438.389 873.136 435.642 873.136 432.265V390.46C873.136 389.569 872.411 388.848 871.522 388.848C870.633 388.848 869.907 389.569 869.907 390.46V432.265C869.907 433.865 868.61 435.166 867.006 435.166C865.412 435.166 864.104 433.865 864.104 432.265V390.46C864.104 389.569 863.389 388.848 862.5 388.848C861.601 388.848 860.886 389.569 860.886 390.46V432.265C860.886 435.642 863.634 438.389 867.006 438.389Z" fill="#172F31"/>
<path d="M880.186 447.718V505.82C880.186 517.054 871.072 526.161 859.844 526.161H834.107C822.868 526.161 813.765 517.054 813.765 505.82V447.718H880.186Z" fill="white"/>
<path d="M534.523 480.539C532.654 478.628 530.314 477.47 527.872 477.046V465.436C527.872 464.273 526.932 463.33 525.767 463.33C524.613 463.33 523.663 464.273 523.663 465.436V477.046C521.221 477.47 518.881 478.628 517.022 480.539L516.93 480.629V506.391H534.615V480.629L534.523 480.539Z" fill="#7FD077"/>
<path d="M607.33 96.2433C595.325 88.6448 581.103 84.2321 565.879 84.2321C547.121 84.2321 529.895 90.9151 516.449 102.016L529.026 102.014L550.911 102.009C555.703 100.809 560.72 100.171 565.879 100.171C567.902 100.171 569.894 100.281 571.866 100.472C574.921 100.767 577.915 101.276 580.817 102.002L581.797 102.265C585.588 103.278 593.782 106.314 597.675 109.084L608.321 106.314C608.321 102.873 607.963 99.5107 607.33 96.2433Z" fill="#E0E4E2"/>
<path d="M548.848 86.1121C548.848 86.1121 531.468 88.6889 528.751 99.4781L526.258 99.5087V101.411L550.002 101.786L548.848 86.1121Z" fill="#E0E4E2"/>
<path d="M123.442 418.959H142.672C151.054 418.959 157.849 412.164 157.849 403.782V403.629H138.618C130.236 403.629 123.442 410.424 123.442 418.806V418.959Z" fill="#7FD077"/>
<path d="M119.802 418.959H100.571C92.1891 418.959 85.3948 412.164 85.3948 403.782V403.629H104.625C113.007 403.629 119.802 410.424 119.802 418.806V418.959Z" fill="#7FD077"/>
<path d="M123.442 392.432H142.672C151.054 392.432 157.849 385.638 157.849 377.255V377.102H138.618C130.236 377.102 123.442 383.897 123.442 392.279V392.432Z" fill="#7FD077"/>
<path d="M119.802 392.432H100.571C92.1891 392.432 85.3948 385.638 85.3948 377.255V377.102H104.625C113.007 377.102 119.802 383.897 119.802 392.279V392.432Z" fill="#7FD077"/>
<path d="M122.731 368.597H134.445C139.55 368.597 143.689 364.458 143.689 359.351V359.258H131.975C126.87 359.258 122.731 363.397 122.731 368.503V368.597Z" fill="#7FD077"/>
<path d="M120.514 368.597H108.799C103.694 368.597 99.5547 364.458 99.5547 359.351V359.258H111.269C116.375 359.258 120.514 363.397 120.514 368.503V368.597Z" fill="#7FD077"/>
<path d="M123.155 464.622H120.09V366.007H123.155V464.622Z" fill="#7FD077"/>
<path d="M156.73 460.117C156.73 472.694 146.535 482.889 133.958 482.889H109.286C96.7092 482.889 86.5137 472.694 86.5137 460.117C86.5137 447.539 96.7092 437.344 109.286 437.344H133.958C146.535 437.344 156.73 447.539 156.73 460.117Z" fill="#F6A78B"/>
<path d="M85.6348 442.005V504.969C85.6348 517.144 95.5034 527.013 107.677 527.013H135.565C147.74 527.013 157.609 517.144 157.609 504.969V442.005H85.6348Z" fill="#E0E4E2"/>
<path d="M569.098 66.6118C545.016 68.1454 522.897 75.799 504.353 87.8326C469.656 110.344 447.505 148.191 448.578 190.029C452.93 243.921 461.911 263.159 476.133 280.391C483.52 289.335 490.008 298.838 495.505 308.782C507.643 330.725 514.989 354.818 516.572 379.797L516.858 384.236L517.665 384.185C550.891 382.069 586.477 368.35 597.501 339.339C666.916 333.657 710.777 274.018 706.619 208.751L704.668 178.068C700.458 112.013 639.769 62.1122 569.098 66.6118Z" fill="#3A1E15"/>
<path d="M610.937 141.411L473.497 150.163L474.314 163.095L480.843 265.625L558.983 275.673L618.119 254.205L610.937 141.411Z" fill="#F6A78B"/>
<path d="M512.158 244.53C512.608 251.541 507.653 257.563 501.093 257.981C494.534 258.398 488.853 253.053 488.414 246.042C487.965 239.03 492.92 233.008 499.479 232.592C506.038 232.174 511.709 237.518 512.158 244.53Z" fill="#3A1E15"/>
<path d="M575.34 240.507C575.78 247.519 570.835 253.541 564.275 253.957C557.716 254.375 552.035 249.03 551.586 242.019C551.146 235.008 556.102 228.986 562.651 228.568C569.21 228.151 574.891 233.496 575.34 240.507Z" fill="#3A1E15"/>
<path d="M486.973 224.004C486.462 221.231 488.209 218.581 490.876 218.083L500.991 216.203C501.154 216.172 501.328 216.15 501.492 216.137C501.573 216.131 501.645 216.128 501.727 216.128C504.649 216.128 505.047 220.643 502.023 221.205L486.973 224.004Z" fill="#BD7B68"/>
<path d="M554.825 210.878C551.811 210.878 551.259 206.301 554.324 205.822C554.488 205.796 554.651 205.778 554.825 205.77L565.093 205.253C565.175 205.249 565.256 205.247 565.338 205.247C567.944 205.247 570.13 207.373 570.263 210.105L554.978 210.875C554.927 210.877 554.876 210.878 554.825 210.878Z" fill="#BD7B68"/>
<path d="M621.052 321.547L617.312 241.489L575.484 244.152L576.975 267.63L480.802 264.871L480.843 265.625C483.357 304.98 518.442 328.927 559.668 326.301L603.039 323.654C608.955 323.292 614.85 322.61 620.694 321.61L621.052 321.547Z" fill="#F6A78B"/>
<path d="M602.63 80.2751L458.304 152.222C458.304 152.222 495.872 223.792 666.456 164.5L602.63 80.2751Z" fill="#3A1E15"/>
<path d="M519.044 240.454L506.406 281.401C507.99 281.3 533.318 279.688 533.318 279.688L530.774 239.707L519.044 240.454Z" fill="#F48468"/>
<path d="M519.044 240.454L502.503 281.649L510.524 281.139L522.324 240.244L519.044 240.454Z" fill="#F6A78B"/>
<path d="M619.713 142.9L617.251 237.686C617.251 237.686 515.837 222.126 467.163 167.675L619.713 142.9Z" fill="#3A1E15"/>
<path d="M597.501 339.339C598.952 346.525 605.961 351.168 613.143 349.71C620.336 348.253 624.975 341.247 623.524 334.061L615.146 292.769C613.685 285.583 606.676 280.94 599.494 282.398C592.311 283.854 587.662 290.862 589.123 298.048L597.501 339.339Z" fill="#F6A78B"/>
<path d="M564.48 286.898C565.593 299.84 555.989 311.227 543.054 312.332C530.109 313.438 518.728 303.842 517.614 290.9L564.48 286.898Z" fill="white"/>
<path d="M461.196 168.785L485.788 170.36C485.788 170.36 474.416 186.038 478.197 224.004L461.196 168.785Z" fill="#3A1E15"/>
<path d="M597.542 393.407C616.382 374.547 623.34 349.535 621.164 324.164L619.171 278.416L706.078 200.233L711.84 287.693C714.915 335.843 684.315 383.722 636.704 391.544C625.373 393.407 598.043 393.376 597.542 393.407Z" fill="#3A1E15"/>
<path d="M528.874 68.6756H519.259C503.821 68.6756 491.254 81.2386 491.254 96.6806V102.547C491.254 105.971 494.033 108.746 497.456 108.746C500.879 108.746 503.658 105.971 503.658 102.547V96.6806C503.658 88.0748 510.657 81.073 519.259 81.073H528.874C532.296 81.073 535.075 78.298 535.075 74.8743C535.075 71.4516 532.296 68.6756 528.874 68.6756Z" fill="white"/>
<path d="M480.25 58.8785C480.25 74.0948 492.593 86.4308 507.806 86.4308C523.019 86.4308 535.361 74.0948 535.361 58.8785C535.361 43.6613 523.019 31.3253 507.806 31.3253C492.593 31.3253 480.25 43.6613 480.25 58.8785Z" fill="white"/>
<path d="M520.158 47.7667H485.502V21.3249L520.158 47.7667Z" fill="white"/>
<path d="M497.752 47.7667H532.419V21.3249L497.752 47.7667Z" fill="white"/>
<path d="M666.803 258.003H648.505V166.135C648.505 137.775 636.97 110.875 616.862 92.328C598.37 75.2697 574.768 66.9653 550.39 68.9331L538.283 69.9129L536.812 51.6724L548.919 50.6926C578.426 48.3008 606.983 58.3125 629.276 78.8763C653.123 100.878 666.803 132.681 666.803 166.135V258.003Z" fill="#E0E4E2"/>
<path d="M618.63 438.543H568.505C565.624 438.543 563.295 436.209 563.295 433.33C563.295 430.449 565.624 428.115 568.505 428.115H572.94C574.339 428.115 575.473 426.982 575.473 425.584C575.473 424.186 574.339 423.053 572.94 423.053H562.508H557.205C554.324 423.053 551.995 420.719 551.995 417.84C551.995 414.959 554.324 412.625 557.205 412.625H574.922H585.343C586.743 412.625 587.877 411.492 587.877 410.094C587.877 408.697 586.743 407.564 585.353 407.564H585.343H574.922H571.775C568.894 407.563 566.564 405.229 566.564 402.35C566.564 399.469 568.894 397.135 571.775 397.135H639.718C642.599 397.135 644.929 399.469 644.929 402.35C644.929 405.23 642.599 407.564 639.718 407.564H624.301H593.936C592.536 407.564 591.402 408.697 591.402 410.094C591.402 411.492 592.536 412.625 593.936 412.625H599.402C602.283 412.625 604.612 414.959 604.612 417.84C604.612 420.719 602.283 423.053 599.402 423.053H581.532C580.132 423.053 578.998 424.186 578.998 425.584C578.998 426.982 580.132 428.115 581.532 428.115H611.897H618.63C621.511 428.115 623.841 430.449 623.841 433.33C623.841 436.209 621.511 438.543 618.63 438.543Z" fill="#48BBC6"/>
<path d="M573.348 461.227H562.232C559.351 461.227 557.011 458.893 557.011 456.013C557.011 453.132 559.351 450.799 562.232 450.799H573.348C576.229 450.799 578.559 453.132 578.559 456.013C578.559 458.893 576.229 461.227 573.348 461.227Z" fill="#48BBC6"/>
<path d="M573.859 42.2851C573.174 41.6884 572.735 41.3124 572.05 40.7157H561.088H539.519C538.835 41.3052 538.406 41.6802 537.721 42.2697L536.454 50.7734C535.76 51.3793 535.32 51.7685 534.625 52.3744C532.786 52.3172 530.743 53.0876 528.73 55.2301C528.567 55.649 528.424 56.0301 528.26 56.449V94.7638C528.26 97.9331 530.539 100.78 533.685 101.151C537.425 101.591 540.602 98.678 540.602 95.0233V71.7214C540.684 71.3873 540.756 71.0634 540.837 70.7294C546.845 58.6344 559.259 51.8115 574.911 51.8115C574.911 51.8115 575.054 50.8367 574.891 49.7231L573.859 42.2851Z" fill="white"/>
<path d="M485.461 63.2299C485.4 63.797 484.879 64.2036 484.317 64.1362L474.447 62.9745C473.875 62.9081 473.467 62.3931 473.538 61.8261C473.599 61.258 474.12 60.8514 474.682 60.9188L484.552 62.0805C485.124 62.1469 485.533 62.6619 485.461 63.2299Z" fill="white"/>
<path d="M473.538 70.9939C473.599 71.562 474.12 71.9686 474.682 71.9012L484.552 70.7395C485.124 70.6731 485.533 70.1582 485.461 69.5901C485.4 69.023 484.879 68.6164 484.317 68.6828L474.447 69.8455C473.875 69.9119 473.467 70.4269 473.538 70.9939Z" fill="white"/>
<path d="M485.502 66.4096C485.502 66.9817 485.042 67.4456 484.47 67.4456H474.529C473.957 67.4456 473.497 66.9817 473.497 66.4096C473.497 65.8385 473.957 65.3746 474.529 65.3746H484.47C485.042 65.3746 485.502 65.8385 485.502 66.4096Z" fill="white"/>
<path d="M494.176 66.804C494.493 66.804 494.748 67.0624 494.748 67.3812C494.748 68.3712 495.556 69.1773 496.547 69.1773C497.538 69.1773 498.345 68.3712 498.345 67.3812C498.345 67.0624 498.6 66.804 498.917 66.804L498.937 66.8081L498.958 66.804C499.275 66.804 499.54 67.0624 499.54 67.3812C499.54 68.3712 500.347 69.1773 501.328 69.1773C502.319 69.1773 503.126 68.3712 503.126 67.3812C503.126 67.0624 503.392 66.804 503.709 66.804C504.026 66.804 504.281 67.0624 504.281 67.3812C504.281 69.0088 502.963 70.3318 501.328 70.3318C500.347 70.3318 499.479 69.8455 498.937 69.1007C498.406 69.8455 497.527 70.3318 496.547 70.3318C494.922 70.3318 493.594 69.0088 493.594 67.3812C493.594 67.0624 493.849 66.804 494.176 66.804Z" fill="#F0365E"/>
<path d="M520.444 63.2299C520.516 63.797 521.027 64.2036 521.599 64.1362L531.469 62.9745C532.031 62.9081 532.439 62.3931 532.378 61.8261C532.306 61.258 531.796 60.8514 531.223 60.9188L521.354 62.0805C520.782 62.1469 520.383 62.6619 520.444 63.2299Z" fill="#E0E4E2"/>
<path d="M532.378 70.9939C532.306 71.562 531.796 71.9686 531.223 71.9012L521.354 70.7395C520.782 70.6731 520.383 70.1582 520.444 69.5901C520.516 69.023 521.027 68.6164 521.599 68.6838L531.469 69.8455C532.031 69.9119 532.439 70.4269 532.378 70.9939Z" fill="#E0E4E2"/>
<path d="M520.403 66.4096C520.403 66.9817 520.863 67.4456 521.435 67.4456H531.376C531.949 67.4456 532.419 66.9817 532.419 66.4096C532.419 65.8385 531.949 65.3746 531.376 65.3746H521.435C520.863 65.3746 520.403 65.8385 520.403 66.4096Z" fill="#E0E4E2"/>
<path d="M510.319 64.6736C510.319 66.5117 511.811 68.0013 513.65 68.0013C515.489 68.0013 516.981 66.5117 516.981 64.6736C516.981 62.8356 515.489 61.3459 513.65 61.3459C511.811 61.3459 510.319 62.8356 510.319 64.6736Z" fill="#656769"/>
<path d="M483.213 64.6736C483.213 66.5117 484.705 68.0013 486.544 68.0013C488.383 68.0013 489.875 66.5117 489.875 64.6736C489.875 62.8356 488.383 61.3459 486.544 61.3459C484.705 61.3459 483.213 62.8356 483.213 64.6736Z" fill="#656769"/>
<path d="M701.459 258.003C701.459 282.197 681.853 301.81 657.659 301.81C633.465 301.81 613.848 282.197 613.848 258.003C613.848 233.809 633.465 214.197 657.659 214.197C681.853 214.197 701.459 233.809 701.459 258.003Z" fill="white"/>
<path d="M657.659 237.563C646.38 237.563 637.215 246.733 637.215 258.003C637.215 269.275 646.38 278.444 657.659 278.444C668.929 278.444 678.093 269.275 678.093 258.003C678.093 246.733 668.929 237.563 657.659 237.563ZM657.659 286.414C641.986 286.414 629.246 273.669 629.246 258.003C629.246 242.339 641.986 229.594 657.659 229.594C673.322 229.594 686.062 242.339 686.062 258.003C686.062 273.669 673.322 286.414 657.659 286.414Z" fill="#E0E4E2"/>
<path d="M677.899 244.548H673.465V181.555C673.465 172.4 666.017 164.952 656.862 164.952C647.708 164.952 640.259 172.4 640.259 181.555V244.548H635.835V181.555C635.835 169.959 645.266 160.524 656.862 160.524C668.458 160.524 677.899 169.959 677.899 181.555V244.548Z" fill="#E0E4E2"/>
</svg>
