<svg width="96" height="25" viewBox="0 0 96 25" fill="none" xmlns="http://www.w3.org/2000/svg">
<path d="M0.855957 1.6V24H5.07996V5.888H5.39996L10.808 24H18.072V1.6H13.848V19.712H13.528L8.11996 1.6H0.855957Z" fill="#121212"/>
<path d="M20.8975 3.52C20.8975 5.152 22.1455 6.27201 23.7455 6.27201C25.3455 6.27201 26.5935 5.152 26.5935 3.52C26.5935 1.888 25.3455 0.768005 23.7455 0.768005C22.1455 0.768005 20.8975 1.888 20.8975 3.52ZM25.7615 8.12801H21.7295V24H25.7615V8.12801Z" fill="#121212"/>
<path d="M28.3945 16.064C28.3945 20.992 32.0425 24.448 36.6505 24.448C41.0985 24.448 43.6905 21.856 44.5865 18.368L40.6825 17.44C40.3305 19.488 39.1465 20.928 36.7145 20.928C34.2825 20.928 32.4265 19.136 32.4265 16.064C32.4265 12.992 34.2825 11.2 36.7145 11.2C39.1465 11.2 40.3305 12.736 40.5545 14.656L44.4585 13.824C43.7545 10.272 41.0665 7.68 36.6505 7.68C32.0425 7.68 28.3945 11.136 28.3945 16.064Z" fill="#121212"/>
<path d="M46.1132 16.064C46.1132 21.248 49.6972 24.448 54.4332 24.448C59.1692 24.448 62.7532 21.248 62.7532 16.064C62.7532 10.88 59.1692 7.68 54.4332 7.68C49.6972 7.68 46.1132 10.88 46.1132 16.064ZM50.1452 16.064C50.1452 12.992 51.9372 11.2 54.4332 11.2C56.9292 11.2 58.7212 12.992 58.7212 16.064C58.7212 19.136 56.9292 20.928 54.4332 20.928C51.9372 20.928 50.1452 19.136 50.1452 16.064Z" fill="#121212"/>
<path d="M69.4177 1.6H65.3857V24H69.4177V1.6Z" fill="#121212"/>
<path d="M72.0507 16.064C72.0507 21.12 75.3467 24.448 80.0827 24.448C84.4347 24.448 86.3227 21.984 87.2187 20.288L83.9227 18.56C83.3787 19.776 82.4507 20.992 80.2107 20.992C77.9707 20.992 76.2747 19.424 76.1787 17.248H87.7307V15.872C87.7307 11.008 84.6907 7.68 80.0187 7.68C75.3467 7.68 72.0507 11.008 72.0507 16.064ZM76.2107 14.24C76.4667 12.48 77.8107 11.136 79.9867 11.136C82.0667 11.136 83.4427 12.416 83.6347 14.24H76.2107Z" fill="#121212"/>
<path d="M89.597 21.408C89.597 23.2 90.909 24.448 92.637 24.448C94.365 24.448 95.677 23.2 95.677 21.408C95.677 19.616 94.365 18.368 92.637 18.368C90.909 18.368 89.597 19.616 89.597 21.408Z" fill="#121212"/>
</svg>
