<svg width="48" height="48" viewBox="0 0 48 48" fill="none" xmlns="http://www.w3.org/2000/svg">
<mask id="mask0_103_44" style="mask-type:alpha" maskUnits="userSpaceOnUse" x="0" y="0" width="48" height="48">
<rect width="48" height="48" fill="#D9D9D9"/>
</mask>
<g mask="url(#mask0_103_44)">
<path d="M8 40C6.9 40 5.95867 39.6087 5.176 38.826C4.392 38.042 4 37.1 4 36H8V40ZM4 32V28H8V32H4ZM4 24V20H8V24H4ZM4 16V12C4 10.9 4.392 9.95867 5.176 9.176C5.95867 8.392 6.9 8 8 8H12V12H8V16H4ZM12 40V36H16V40H12ZM16 12V8H20V12H16ZM20 40V36H24V40H20ZM24 20V8H40C41.1 8 42.042 8.392 42.826 9.176C43.6087 9.95867 44 10.9 44 12V20H24ZM28 40V36H32V40H28ZM36 40V36H40V32H44V36C44 37.1 43.6087 38.042 42.826 38.826C42.042 39.6087 41.1 40 40 40H36ZM40 28V24H44V28H40Z" fill="#121212"/>
</g>
</svg>
