<svg width="280" height="280" viewBox="0 0 280 280" fill="none" xmlns="http://www.w3.org/2000/svg">
<path d="M40.0071 160.738C40.0071 223.841 91.1913 275 154.282 275C217.372 275 268.556 223.841 268.556 160.738C268.556 97.6311 217.372 46.4725 154.282 46.4725C91.1913 46.4725 40.0071 97.6311 40.0071 160.738Z" fill="white"/>
<path d="M205.509 114.656H61.7864V5.00007L205.509 114.656Z" fill="white"/>
<path d="M112.589 114.656H256.353V5.00007L112.589 114.656Z" fill="white"/>
<path d="M61.6164 178.784C61.3622 181.136 59.2016 182.822 56.8712 182.542L15.9406 177.725C13.5678 177.449 11.8732 175.314 12.1698 172.962C12.424 170.606 14.5846 168.92 16.915 169.2L57.8456 174.017C60.2184 174.293 61.913 176.428 61.6164 178.784Z" fill="white"/>
<path d="M12.1698 210.982C12.424 213.338 14.5846 215.024 16.915 214.745L57.8456 209.927C60.2184 209.652 61.913 207.516 61.6164 205.16C61.3622 202.809 59.2016 201.122 56.8712 201.398L15.9406 206.219C13.5678 206.495 11.8732 208.631 12.1698 210.982Z" fill="white"/>
<path d="M61.7859 191.97C61.7859 194.343 59.8793 196.267 57.5066 196.267H16.2793C13.9065 196.267 12 194.343 12 191.97C12 189.602 13.9065 187.678 16.2793 187.678H57.5066C59.8793 187.678 61.7859 189.602 61.7859 191.97Z" fill="white"/>
<path d="M97.759 193.606C99.0725 193.606 100.132 194.678 100.132 196C100.132 200.105 103.479 203.448 107.589 203.448C111.699 203.448 115.046 200.105 115.046 196C115.046 194.678 116.105 193.606 117.419 193.606L117.504 193.623L117.589 193.606C118.902 193.606 120.004 194.678 120.004 196C120.004 200.105 123.351 203.448 127.419 203.448C131.529 203.448 134.876 200.105 134.876 196C134.876 194.678 135.977 193.606 137.291 193.606C138.604 193.606 139.664 194.678 139.664 196C139.664 202.749 134.198 208.236 127.419 208.236C123.351 208.236 119.749 206.22 117.504 203.131C115.3 206.22 111.656 208.236 107.589 208.236C100.852 208.236 95.3438 202.749 95.3438 196C95.3438 194.678 96.4031 193.606 97.759 193.606Z" fill="#F0365E"/>
<path d="M206.695 178.784C206.992 181.136 209.11 182.822 211.483 182.542L252.414 177.725C254.744 177.449 256.439 175.314 256.184 172.962C255.888 170.606 253.769 168.92 251.396 169.2L210.466 174.017C208.094 174.293 206.441 176.428 206.695 178.784Z" fill="#E0E4E2"/>
<path d="M256.184 210.982C255.888 213.338 253.769 215.024 251.396 214.745L210.466 209.927C208.094 209.652 206.441 207.516 206.695 205.16C206.992 202.809 209.11 201.122 211.483 201.402L252.414 206.219C254.744 206.495 256.439 208.631 256.184 210.982Z" fill="#E0E4E2"/>
<path d="M206.524 191.97C206.524 194.343 208.431 196.267 210.804 196.267H252.031C254.404 196.267 256.353 194.343 256.353 191.97C256.353 189.602 254.404 187.678 252.031 187.678H210.804C208.431 187.678 206.524 189.602 206.524 191.97Z" fill="#E0E4E2"/>
<path d="M164.705 184.771C164.705 192.394 170.891 198.571 178.518 198.571C186.145 198.571 192.331 192.394 192.331 184.771C192.331 177.149 186.145 170.971 178.518 170.971C170.891 170.971 164.705 177.149 164.705 184.771Z" fill="#656769"/>
<path d="M52.2943 184.771C52.2943 192.394 58.4807 198.571 66.1075 198.571C73.7343 198.571 79.9203 192.394 79.9203 184.771C79.9203 177.149 73.7343 170.971 66.1075 170.971C58.4807 170.971 52.2943 177.149 52.2943 184.771Z" fill="#656769"/>
</svg>
