<?xml version="1.0" standalone="no"?>
<!DOCTYPE svg PUBLIC "-//W3C//DTD SVG 20010904//EN"
 "http://www.w3.org/TR/2001/REC-SVG-20010904/DTD/svg10.dtd">
<svg version="1.0" xmlns="http://www.w3.org/2000/svg"
 width="700.000000pt" height="700.000000pt" viewBox="0 0 700.000000 700.000000"
 preserveAspectRatio="xMidYMid meet">
<metadata>
Created by potrace 1.14, written by Peter Selinger 2001-2017
</metadata>
<g transform="translate(0.000000,700.000000) scale(0.100000,-0.100000)"
fill="#000000" stroke="none">
<path d="M1548 6863 c-2 -4 -4 -501 -4 -1103 l1 -1094 -62 -96 c-337 -516
-484 -1020 -478 -1638 l2 -232 -31 5 c-17 2 -71 9 -121 15 -49 6 -106 12 -125
15 -19 2 -69 7 -110 11 -41 3 -78 8 -82 10 -4 3 -40 7 -82 11 -66 5 -78 3
-105 -16 -33 -23 -53 -76 -44 -113 14 -58 61 -81 182 -93 36 -3 79 -8 95 -10
17 -2 54 -6 81 -9 45 -5 85 -10 170 -21 17 -2 64 -7 105 -11 41 -3 82 -10 90
-14 11 -7 54 -159 46 -167 -1 -1 -160 -4 -353 -5 -339 -3 -353 -4 -380 -24
-56 -42 -53 -134 6 -172 22 -15 68 -17 403 -18 208 0 381 -4 385 -7 3 -4 19
-38 33 -77 l27 -69 -26 -5 c-14 -3 -53 -8 -86 -12 -62 -6 -74 -7 -165 -18
-101 -12 -130 -16 -167 -21 -21 -2 -60 -7 -88 -10 -47 -5 -85 -10 -180 -21
-112 -13 -124 -17 -149 -43 -42 -44 -39 -110 6 -151 29 -27 36 -29 97 -25 36
3 76 7 88 9 12 3 53 7 90 11 37 3 79 7 93 10 27 4 98 12 170 20 46 5 78 9 166
20 28 4 68 8 90 10 21 2 64 7 95 10 l57 7 35 -70 c66 -129 169 -290 267 -417
547 -708 1372 -1117 2260 -1118 114 -1 327 10 339 17 3 2 33 6 66 10 125 13
314 56 486 112 738 238 1356 780 1694 1487 83 173 169 412 191 527 2 14 7 32
10 40 9 26 44 210 50 264 3 28 7 56 9 63 15 47 22 371 11 533 -6 95 -12 148
-31 275 -5 32 -27 133 -60 275 -22 98 -114 345 -179 480 l-26 55 -2 1304 -3
1304 -135 -104 c-74 -57 -151 -115 -170 -129 -19 -13 -40 -29 -46 -35 -6 -5
-24 -20 -40 -32 -152 -116 -736 -560 -759 -579 -16 -13 -119 -91 -229 -174
l-198 -151 -60 21 c-279 96 -580 144 -908 144 -199 0 -315 -8 -463 -34 -152
-27 -174 -31 -271 -56 -58 -14 -72 -15 -90 -4 -11 7 -201 151 -421 319 -352
268 -537 409 -570 433 -5 4 -23 18 -40 31 -16 13 -120 93 -230 177 -110 84
-205 157 -212 162 -6 5 -13 5 -15 1z"/>
</g>
</svg>
